<svg width="30" height="23" viewBox="0 0 30 23" fill="none" xmlns="http://www.w3.org/2000/svg">
<path d="M28.503 3.8498L28.4438 3.81177L27.6663 0.00854492L23.8039 0.786095L23.7321 0.73961L23.6814 0.811448L18.9823 1.77493L21.8051 3.64274C19.595 6.95577 17.3934 10.2773 15.1621 13.5776C14.7374 14.2114 14.2237 14.7807 13.6366 15.2679C12.7764 15.9589 11.6999 16.3241 10.5969 16.2994C9.49378 16.2747 8.4348 15.8615 7.6064 15.1327C6.75099 14.4388 6.16437 13.4683 5.94762 12.3884C5.73086 11.3085 5.89755 10.1868 6.41895 9.21657C6.77192 8.53135 7.28444 7.94101 7.9133 7.4953C8.54217 7.04959 9.26896 6.76158 10.0324 6.65553C10.7959 6.54948 11.5737 6.6285 12.3002 6.88594C13.0267 7.14338 13.6807 7.57169 14.2071 8.13477C14.9135 8.95601 15.5764 9.81361 16.1932 10.7041L19.6795 5.47251C18.3978 3.55546 16.5335 2.10138 14.3621 1.32497C12.1906 0.54856 9.82709 0.490981 7.62041 1.16073C5.41373 1.83047 3.4809 3.19205 2.10731 5.04441C0.733725 6.89677 -0.0078125 9.14172 -0.0078125 11.4478C-0.0078125 13.7539 0.733725 15.9988 2.10731 17.8512C3.4809 19.7035 5.41373 21.0651 7.62041 21.7349C9.82709 22.4046 12.1906 22.347 14.3621 21.5706C16.5335 20.7942 18.3978 19.3401 19.6795 17.4231C22.0009 13.8988 24.311 10.366 26.6098 6.82477L29.4116 8.67989L28.4523 3.92586L28.503 3.8498Z" fill="url(#paint0_linear_848_191)"/>
<path d="M27.7846 17.8794L27.1846 16.9877L24.0532 12.2041C22.9461 13.8691 21.9108 15.4073 20.8966 16.9666L20.605 17.3892C21.3065 18.5048 22.122 19.7598 22.908 20.9515C23.2528 21.4605 23.7518 21.8455 24.3316 22.05C24.9114 22.2544 25.5415 22.2675 26.1293 22.0874C26.7171 21.9072 27.2316 21.5433 27.5973 21.049C27.9629 20.5548 28.1604 19.9563 28.1607 19.3415C28.1543 18.8262 28.0083 18.3224 27.7381 17.8836L27.7846 17.8794Z" fill="url(#paint1_linear_848_191)"/>
<defs>
<linearGradient id="paint0_linear_848_191" x1="-4.52367e-05" y1="11.1097" x2="29.4327" y2="11.1097" gradientUnits="userSpaceOnUse">
<stop stop-color="#18A0FB"/>
<stop offset="1" stop-color="#36D3FF"/>
</linearGradient>
<linearGradient id="paint1_linear_848_191" x1="1535.3" y1="1068.2" x2="1670.48" y2="1068.2" gradientUnits="userSpaceOnUse">
<stop stop-color="#18A0FB"/>
<stop offset="1" stop-color="#36D3FF"/>
</linearGradient>
</defs>
</svg>
